<?xml version="1.0" standalone="no"?>
<!DOCTYPE svg PUBLIC "-//W3C//DTD SVG 20010904//EN"
 "http://www.w3.org/TR/2001/REC-SVG-20010904/DTD/svg10.dtd">
<svg version="1.0" xmlns="http://www.w3.org/2000/svg"
 style="display: block; margin: auto;" viewBox="0 0 510 510"
 preserveAspectRatio="xMidYMid meet">
<defs>
  <linearGradient id="rcGradient" x1="0%" y1="0%" x2="100%" y2="100%">
    <stop offset="21%" stop-color="rgba(173, 35, 35, 1)" />
    <stop offset="49%" stop-color="rgba(117, 29, 29, 1)" />
    <stop offset="73%" stop-color="rgba(158, 158, 158, 1)" />
  </linearGradient>
</defs>

<g transform="translate(0.000000,312.000000) scale(0.100000,-0.100000)"
fill="#000000" stroke="none">
<path d="M1415 3040 c-253 -30 -509 -134 -720 -293 -88 -67 -242 -218 -264
-260 -13 -25 -12 -29 24 -74 105 -132 205 -212 309 -247 57 -19 93 -20 596
-26 607 -6 566 0 667 -94 86 -79 108 -129 108 -241 0 -80 -3 -97 -30 -149 -36
-71 -99 -129 -171 -156 -48 -17 -78 -20 -239 -20 -102 0 -185 -2 -185 -6 0 -8
527 -612 583 -667 131 -131 358 -226 539 -227 69 0 88 15 172 132 119 169 218
412 250 614 20 127 21 348 1 474 -44 288 -183 569 -391 789 -205 218 -471 366
-776 431 -106 23 -360 34 -473 20z m399 -96 c491 -77 913 -424 1086 -894 70
-191 101 -414 82 -601 -30 -292 -138 -557 -316 -772 l-23 -28 -224 257 c-123
141 -228 262 -234 268 -5 7 -23 26 -39 43 l-29 32 49 22 c72 34 172 139 216
229 192 388 28 783 -387 937 -47 17 -99 18 -757 21 -390 1 -708 6 -708 10 0
16 169 173 250 232 161 118 389 213 590 245 119 18 323 18 444 -1z" style="fill: #ad2323;"/>
<path d="M293 2278 c-228 -417 -241 -925 -33 -1354 190 -392 538 -680 955
-789 154 -40 230 -48 427 -42 190 5 304 25 448 78 77 28 190 81 190 88 -1 3
-78 96 -173 207 -95 110 -360 419 -589 686 -230 268 -418 491 -418 497 0 7 77
12 231 13 l231 3 -32 40 c-57 74 -158 170 -212 202 -90 54 -145 63 -398 63
-252 0 -313 -10 -349 -57 -27 -33 -27 -88 -1 -130 11 -18 79 -101 152 -185 73
-84 334 -387 579 -673 246 -286 463 -535 483 -553 51 -44 124 -80 209 -101
l72 -18 -70 -22 c-182 -57 -461 -73 -650 -38 -487 91 -894 432 -1060 891 -66
183 -79 258 -79 476 -1 169 2 209 22 299 28 123 66 229 122 341 l41 82 -23 27
c-12 14 -26 30 -29 34 -4 5 -24 -25 -46 -65z" style="fill: #717171;"/>
<path d="M1550 2055 c-6 -15 -17 -25 -29 -25 -27 0 -34 -15 -19 -40 11 -18 10
-23 -4 -31 -24 -14 -23 -35 3 -42 15 -4 19 -12 17 -34 -3 -26 -1 -28 28 -26
21 2 34 -2 38 -12 7 -19 32 -19 40 0 3 10 16 14 38 13 29 -3 33 0 30 20 -1 17
4 25 18 29 20 5 29 43 10 43 -6 0 -10 16 -8 38 2 27 -1 37 -12 37 -23 1 -40
14 -34 29 8 21 -27 29 -41 9 -13 -17 -14 -17 -32 0 -26 23 -32 22 -43 -8z
m110 -43 c30 -24 30 -86 1 -115 -49 -50 -131 -13 -131 59 0 64 78 98 130 56z" fill="url(#rcGradient)"/>
<path d="M1566 1994 c-18 -18 -20 -47 -6 -75 12 -22 68 -27 88 -7 20 20 15 76
-7 88 -28 14 -57 12 -75 -6z" fill="url(#rcGradient)"/>
<path d="M1823 2073 c-7 -2 -13 -15 -13 -28 0 -29 -20 -46 -48 -38 -27 7 -41
-21 -23 -49 12 -20 0 -58 -20 -58 -6 0 -9 -12 -7 -27 2 -19 9 -28 21 -28 24 0
43 -33 28 -48 -16 -16 -14 -25 10 -37 15 -8 24 -8 34 0 17 14 55 -3 55 -24 0
-17 25 -27 45 -20 8 4 15 14 15 24 0 22 36 32 51 14 18 -22 52 1 45 31 -9 34
3 55 30 55 19 0 24 5 24 25 0 13 -6 28 -14 32 -21 13 -25 37 -8 56 20 22 5 53
-24 50 -31 -3 -56 16 -49 37 9 27 -33 49 -50 26 -15 -20 -54 -21 -61 -1 -6 15
-19 18 -41 8z m134 -104 c48 -46 37 -116 -25 -152 -38 -22 -69 -18 -108 16
-21 18 -27 32 -27 65 0 89 95 131 160 71z" fill="url(#rcGradient)"/>
<path d="M1849 1952 c-43 -36 -18 -122 36 -122 35 0 75 37 75 70 0 19 -9 36
-26 49 -33 26 -55 26 -85 3z" fill="url(#rcGradient)"/>
<path d="M1730 1725 c-6 -15 -17 -25 -29 -25 -26 0 -36 -17 -20 -37 11 -13 10
-17 -4 -28 -23 -17 -21 -42 4 -48 13 -4 19 -12 18 -24 -5 -28 10 -46 26 -33
10 9 19 6 34 -9 25 -25 37 -26 45 -5 4 11 14 15 31 11 24 -4 38 5 41 28 0 6 2
16 2 23 1 6 9 12 17 12 8 0 15 7 15 15 0 8 -5 15 -11 15 -7 0 -8 14 -4 39 6
38 5 40 -22 43 -20 2 -28 8 -28 23 0 11 -8 21 -17 23 -10 2 -18 -1 -18 -7 0
-6 -9 -11 -20 -11 -11 0 -20 5 -20 10 0 21 -31 9 -40 -15z m115 -45 c24 -25
25 -82 1 -109 -49 -54 -135 -20 -135 54 0 74 81 107 134 55z" fill="url(#rcGradient)"/>
<path d="M1746 1664 c-48 -47 14 -116 75 -84 22 12 27 68 7 88 -17 17 -64 15
-82 -4z" fill="url(#rcGradient)"/>
</g>
</svg>
